{"title":"Welcome to Sajjanpur (2008)720p.X264.DVDRip.Ac3.5.1","uid":8724498,"size":2157746848,"categoryP":"video","categoryS":"hd___movies","magnet":"?xt=urn:btih:513cf89d2b3519cd07432aa31fd7cd17c14f3b12&amp;dn=Welcome+to+Sajjanpur+%282008%29720p.X264.DVDRip.Ac3.5.1&amp;tr=udp%3A%2F%2Ftracker.openbittorrent.com%3A80&amp;tr=udp%3A%2F%2Fopen.demonii.com%3A1337&amp;tr=udp%3A%2F%2Ftracker.coppersurfer.tk%3A6969&amp;tr=udp%3A%2F%2Fexodus.desync.com%3A6969","seeders":1,"leechers":0,"uploader":"manucs2004","files":-1,"time":1374486819,"description":"Welcome to Sajjanpur (2008)720p.X264.DVDRip.Ac3.5.1 &lt;a href=&quot;\nhttp://img690.imageshack.us/img690/5062/coverucc.jpg&quot; rel=&quot;nofollow&quot; target=&quot;_NEW&quot;&gt;\nhttp://img690.imageshack.us/img690/5062/coverucc.jpg&lt;/a&gt;\n\n\nScreens:\n &lt;a href=&quot;\nhttp://img822.imageshack.us/img822/1944/50687286.png&quot; rel=&quot;nofollow&quot; target=&quot;_NEW&quot;&gt;\nhttp://img822.imageshack.us/img822/1944/50687286.png&lt;/a&gt;\n &lt;a href=&quot;\nhttp://img191.imageshack.us/img191/4227/17692625.png&quot; rel=&quot;nofollow&quot; target=&quot;_NEW&quot;&gt;\nhttp://img191.imageshack.us/img191/4227/17692625.png&lt;/a&gt;\n &lt;a href=&quot;\nhttp://img850.imageshack.us/img850/4922/97565038.png&quot; rel=&quot;nofollow&quot; target=&quot;_NEW&quot;&gt;\nhttp://img850.imageshack.us/img850/4922/97565038.png&lt;/a&gt;\n &lt;a href=&quot;\nhttp://img829.imageshack.us/img829/6279/88607421.png&quot; rel=&quot;nofollow&quot; target=&quot;_NEW&quot;&gt;\nhttp://img829.imageshack.us/img829/6279/88607421.png&lt;/a&gt;\n &lt;a href=&quot;\nhttp://img7.imageshack.us/img7/9325/68586708.png&quot; rel=&quot;nofollow&quot; target=&quot;_NEW&quot;&gt;\nhttp://img7.imageshack.us/img7/9325/68586708.png&lt;/a&gt;\n\n\n\nRip Information\nCode:\nFormat : Matroska Format version : Version 2 File size : 2.00 GiB Duration : 2h 10mn Overall bit rate : 2 182 Kbps Movie name : Welcome to Sajjanpur (2008)720p.X264.DVDRip.Ac3.5.1.By K@rtik [ExD Exclusive] Encoded date : UTC 2012-08-13 18:30:37\n\nVideo\nCode:\nFormat : AVC Format/Info : Advanced Video Codec Format profile : &lt;a class=&quot;__cf_email__&quot; href=&quot;/cdn-cgi/l/email-protection&quot; data-cfemail=&quot;a8e0c1cfc0e8e49b8699&quot;&gt;[email&amp;#160;protected]&lt;/a&gt;&lt;script cf-hash='f9e31' type=&quot;text/javascript&quot;&gt;\n/* &lt;![CDATA[ */!function(){try{var t=&quot;currentScript&quot;in document?document.currentScript:function(){for(var t=document.getElementsByTagName(&quot;script&quot;),e=t.length;e--;)if(t[e].getAttribute(&quot;cf-hash&quot;))return t[e]}();if(t&amp;&amp;t.previousSibling){var e,r,n,i,c=t.previousSibling,a=c.getAttribute(&quot;data-cfemail&quot;);if(a){for(e=&quot;&quot;,r=parseInt(a.substr(0,2),16),n=2;a.length-n;n+=2)i=parseInt(a.substr(n,2),16)^r,e+=String.fromCharCode(i);e=document.createTextNode(e),c.parentNode.replaceChild(e,c)}}}catch(u){}}();/* ]]&gt; */&lt;/script&gt; Format settings, CABAC : Yes Format settings, ReFrames : 4 frames Muxing mode : Header stripping Codec ID : V_MPEG4/ISO/AVC Duration : 2h 10mn Bit rate : 1 733 Kbps Width : 1 280 pixels Height : 544 pixels Display aspect ratio : 2.35:1 Frame rate : 29.970 fps Color space : YUV Chroma subsampling : 4:2:0 Bit depth : 8 bits Scan type : Progressive Bits/(Pixel*Frame) : 0.083 Stream size : 1.55 GiB (77%) Title : K@rtik Writing library : x264 core 125 r2200 999b753\n\nAudio 1\nCode:\nFormat : AC-3 Format/Info : Audio Coding 3 Mode extension : CM (complete main) Format settings, Endianness : Big Muxing mode : Header stripping Codec ID : A_AC3 Duration : 2h 10mn Bit rate mode : Constant Bit rate : 448 Kbps Channel(s) : 6 channels Channel positions : Front: L C R, Side: L R, LFE Sampling rate : 48.0 KHz Bit depth : 16 bits Compression mode : Lossy Stream size : 420 MiB (21%) Title : K@rtik Language : Hindi\n","torrent":{"xt":"urn:btih:513cf89d2b3519cd07432aa31fd7cd17c14f3b12","amp;dn":"Welcome+to+Sajjanpur+%282008%29720p.X264.DVDRip.Ac3.5.1","amp;tr":["udp%3A%2F%2Ftracker.openbittorrent.com%3A80","udp%3A%2F%2Fopen.demonii.com%3A1337","udp%3A%2F%2Ftracker.coppersurfer.tk%3A6969","udp%3A%2F%2Fexodus.desync.com%3A6969"],"infoHash":"513cf89d2b3519cd07432aa31fd7cd17c14f3b12","infoHashBuffer":{"type":"Buffer","data":[81,60,248,157,43,53,25,205,7,67,42,163,31,215,205,23,193,79,59,18]},"announce":[],"urlList":[]}}